<?xml version="1.0" standalone="no"?><!DOCTYPE svg PUBLIC "-//W3C//DTD SVG 1.1//EN" "http://www.w3.org/Graphics/SVG/1.1/DTD/svg11.dtd"><svg t="1715132024785" class="icon" viewBox="0 0 1024 1024" version="1.1" xmlns="http://www.w3.org/2000/svg" p-id="9881" width="48" height="48" xmlns:xlink="http://www.w3.org/1999/xlink"><path d="M24.85333333 600.21333333V873.6c0 11.73333333 9.6 21.33333333 21.33333334 21.33333333h3.30666666c10.66666667 0 19.52-7.89333333 21.12-18.34666666 8.85333333-58.98666667 59.84-104.32 121.28-104.32s112.42666667 45.22666667 121.28 104.32c1.6 10.56 10.45333333 18.34666667 21.12 18.34666666H377.6c11.73333333 0 21.33333333-9.6 21.33333333-21.33333333V400c0-11.73333333-9.6-21.33333333-21.33333333-21.33333333H264.53333333c-35.30666667 0-69.12 14.61333333-93.33333333 40.42666666L42.24 556.48c-11.2 11.84-17.38666667 27.52-17.38666667 43.73333333zM324.26666667 475.73333333v153.6c0 11.73333333-9.6 21.33333333-21.33333334 21.33333334H120.85333333c-11.73333333 0-21.33333333-9.6-21.33333333-21.33333334v-14.50666666c0-11.2 4.48-22.08 12.37333333-29.97333334l91.62666667-92.48c24-24.32 56.74666667-37.97333333 90.98666667-37.97333333h8.42666666c11.73333333 0 21.33333333 9.49333333 21.33333334 21.33333333zM464.32 240v612.26666667c0 23.57333333 19.09333333 42.66666667 42.66666667 42.66666666h186.77333333c10.66666667 0 19.52-7.89333333 21.12-18.34666666 8.85333333-58.98666667 59.84-104.32 121.28-104.32 67.73333333 0 122.66666667 54.93333333 122.66666667 122.66666666 21.76 0 39.46666667-17.70666667 39.46666666-39.46666666V240c0-23.57333333-19.09333333-42.66666667-42.66666666-42.66666667H506.98666667c-23.57333333 0-42.66666667 19.09333333-42.66666667 42.66666667z" fill="#1890FF" p-id="9882"></path><path d="M193.6 816c-48.42666667-0.85333333-87.78666667 38.50666667-86.93333333 86.93333333 0.85333333 45.65333333 38.08 82.88 83.73333333 83.73333334 48.42666667 0.85333333 87.78666667-38.50666667 86.93333333-86.93333334-0.85333333-45.65333333-38.08-82.88-83.73333333-83.73333333zM837.86666667 816c-48.42666667-0.85333333-87.78666667 38.50666667-86.93333334 86.93333333 0.85333333 45.65333333 38.08 82.88 83.73333334 83.73333334 48.42666667 0.85333333 87.78666667-38.50666667 86.93333333-86.93333334-0.85333333-45.65333333-38.08-82.88-83.73333333-83.73333333z" fill="#1890FF" p-id="9883"></path></svg>