<?xml version="1.0" standalone="no"?><!DOCTYPE svg PUBLIC "-//W3C//DTD SVG 1.1//EN" "http://www.w3.org/Graphics/SVG/1.1/DTD/svg11.dtd"><svg t="1712123406855" class="icon" viewBox="0 0 1024 1024" version="1.1" xmlns="http://www.w3.org/2000/svg" p-id="6319" width="32" height="32" xmlns:xlink="http://www.w3.org/1999/xlink"><path d="M592.064 176H106.688a48 48 0 0 1 0-96H640a48 48 0 0 1 48 48v336h113.408l-46.08-46.08a48 48 0 1 1 67.84-67.84l128 128a48 48 0 0 1 0 67.84l-128 128a48 48 0 0 1-67.84-67.84l46.08-46.08H688V896a48 48 0 0 1-48 48H106.688a48 48 0 0 1 0-96H592V514.752a48.512 48.512 0 0 1 0-5.504V176zM165.376 357.376a48 48 0 0 1 67.84 0L320 444.16l86.72-86.784a48 48 0 0 1 67.904 67.904L387.904 512l86.72 86.72a48 48 0 0 1-67.84 67.904L320 579.904l-86.72 86.72a48 48 0 1 1-67.84-67.84L252.032 512 165.376 425.28a48 48 0 0 1 0-67.84z" p-id="6320"></path></svg>