<?xml version="1.0" standalone="no"?><!DOCTYPE svg PUBLIC "-//W3C//DTD SVG 1.1//EN" "http://www.w3.org/Graphics/SVG/1.1/DTD/svg11.dtd"><svg t="1712123498572" class="icon" viewBox="0 0 1024 1024" version="1.1" xmlns="http://www.w3.org/2000/svg" p-id="10126" width="32" height="32" xmlns:xlink="http://www.w3.org/1999/xlink"><path d="M864 192H352c-89.6 0-160 70.4-160 160v512c0 89.6 70.4 160 160 160h512c89.6 0 160-70.4 160-160V352c0-89.6-70.4-160-160-160z m64 672c0 35.2-28.8 64-64 64H352c-35.2 0-64-28.8-64-64V352c0-35.2 28.8-64 64-64h512c35.2 0 64 28.8 64 64v512z" p-id="10127"></path><path d="M144 732.8c-28.8-6.4-48-32-48-60.8V160c0-35.2 28.8-64 64-64h512c28.8 0 54.4 19.2 60.8 48h96C822.4 64 755.2 0 672 0H160C70.4 0 0 70.4 0 160v512c0 83.2 64 150.4 144 156.8v-96zM755.2 528l-227.2 227.2c-19.2 19.2-48 19.2-67.2 0-19.2-19.2-19.2-48 0-67.2l227.2-227.2c19.2-19.2 48-19.2 67.2 0 19.2 19.2 19.2 48 0 67.2z" p-id="10128"></path><path d="M688 755.2l-227.2-227.2c-19.2-19.2-19.2-48 0-67.2 19.2-19.2 48-19.2 67.2 0l227.2 227.2c19.2 19.2 19.2 48 0 67.2-19.2 19.2-48 19.2-67.2 0z" p-id="10129"></path></svg>