<?xml version="1.0" standalone="no"?><!DOCTYPE svg PUBLIC "-//W3C//DTD SVG 1.1//EN" "http://www.w3.org/Graphics/SVG/1.1/DTD/svg11.dtd"><svg t="1712123373230" class="icon" viewBox="0 0 1024 1024" version="1.1" xmlns="http://www.w3.org/2000/svg" p-id="4333" width="32" height="32" xmlns:xlink="http://www.w3.org/1999/xlink"><path d="M349.952 94.08a48 48 0 0 1 33.92-14.08h533.44a48 48 0 0 1 0 96H432v333.248a49.152 49.152 0 0 1 0 5.504v333.248h485.376a48 48 0 0 1 0 96H384a48 48 0 0 1-48-48V560H222.528l46.08 46.08a48 48 0 1 1-67.84 67.84l-128-128a48 48 0 0 1 0-67.84l128-128a48 48 0 0 1 67.84 67.84l-46.08 46.08H336V128a48 48 0 0 1 14.08-33.92z m508.672 263.296a48 48 0 0 1 0 67.84L771.84 512l86.72 86.784a48 48 0 1 1-67.84 67.84L704 579.904l-86.72 86.72a48 48 0 1 1-67.904-67.84L636.096 512 549.376 425.28a48 48 0 1 1 67.84-67.84L704 444.16l86.72-86.784a48 48 0 0 1 67.84 0z" p-id="4334"></path></svg>