<?xml version="1.0" standalone="no"?><!DOCTYPE svg PUBLIC "-//W3C//DTD SVG 1.1//EN" "http://www.w3.org/Graphics/SVG/1.1/DTD/svg11.dtd"><svg t="1715065613919" class="icon" viewBox="0 0 1024 1024" version="1.1" xmlns="http://www.w3.org/2000/svg" p-id="4341" width="48" height="48" xmlns:xlink="http://www.w3.org/1999/xlink"><path d="M630.7328 813.6704c154.5216 13.9776 266.3424 54.6816 266.496 102.6048 0 59.4432-172.1856 107.7248-384.6144 107.7248-212.48 0-384.6144-48.2816-384.6144-107.7248 0-48.128 112.64-88.8832 268.288-102.7072l9.3184 9.0624c-81.6128 11.52-138.0352 35.84-138.0352 64.1536 0 39.424 109.7216 71.3216 245.0432 71.3216s245.0432-32 245.0432-71.3216c0-28.0576-55.6032-52.2752-136.2944-63.9488l9.3696-9.1648z m266.9568-442.4704c0 102.0416-42.6496 194.304-111.5136 261.5808v0.1024l-272.0256 264.2944-273.8176-264.192v-0.1024c-69.12-67.1232-111.872-159.5392-111.872-261.632C128.512 166.0928 300.6464 0 513.0752 0c212.48 0 384.6144 166.144 384.6144 371.2z m-376.2176-170.1376h-0.1024v42.6496h99.4304v50.432h-92.16v109.0048c0 33.5872 16.384 50.432 49.3568 50.432h43.264c30.1056 0 48.5888-10.0864 55.552-30.464 4.4032-8.448 8.192-26.5216 11.6224-54.272-13.1584-4.096-29.696-10.4448-49.7664-18.944-1.1776 30.1056-3.328 47.872-6.4 53.0944-3.072 5.2736-9.472 7.8848-19.3024 7.8848h-16.6912c-12.0832 0-18.1248-5.376-18.1248-16.0768V337.0496h92.16V201.0624h-148.8384z m154.624 319.8464c5.3248-18.0736 11.1616-34.6624 17.5616-49.9712-60.928 1.28-109.568 1.9456-146.1248 1.9456-38.4 0-63.488-0.6656-75.3152-2.048V426.496h40.6016V383.488h-40.6016V344.576h45.1072v-43.1104H453.4784v-32.256h53.6576v-43.1104H453.4784V181.248h-49.7664v44.8512h-58.368v43.1104h58.368v32.256H333.0048v43.1104H424.448v106.7008a88.3712 88.3712 0 0 1-25.2416-35.2256c1.536-17.8176 2.3552-36.9152 2.3552-57.3952h-46.4384c0.256 57.0368-7.4752 100.7616-23.1936 131.072 16.4352 16.7936 29.1328 29.952 38.144 39.5264a237.056 237.056 0 0 0 20.1216-55.0912c16.8448 26.7264 44.4416 41.2672 83.0464 43.4176 38.656 2.2016 106.1888 3.328 202.8544 3.328z" fill="#1296db" p-id="4342"></path></svg>