<?xml version="1.0" standalone="no"?><!DOCTYPE svg PUBLIC "-//W3C//DTD SVG 1.1//EN" "http://www.w3.org/Graphics/SVG/1.1/DTD/svg11.dtd"><svg t="1715132131496" class="icon" viewBox="0 0 1024 1024" version="1.1" xmlns="http://www.w3.org/2000/svg" p-id="16442" width="48" height="48" xmlns:xlink="http://www.w3.org/1999/xlink"><path d="M595.966948 58.503603V33.287619a34.175979 34.175979 0 0 0-34.879979-33.279979h-99.262938c-19.199988 0-34.879978 14.912991-34.879978 33.215979v25.279984C220.163182 95.88058 64.19628 269.318472 64.19628 477.253342c0 167.229895 101.503937 312.508805 248.701844 382.203761v-0.448l47.871971-91.710943c-111.93493-53.119967-188.989882-163.069898-188.989882-290.045818 0-178.878888 151.997905-323.709798 339.644787-323.709798 187.709883 0 339.709788 144.830909 339.709788 323.709798 0 126.974921-77.055952 236.925852-188.542882 290.045818l47.87197 92.159943C858.108784 789.697146 959.099721 644.930237 959.099721 477.251342c0-207.93387-156.286902-381.436762-363.133773-418.748739z" fill="#d81e06" p-id="16443"></path><path d="M780.605832 964.864037s-163.774898-32.76698-198.142876-41.470974c-34.430978-8.767995-37.054977-55.679965-37.054977-55.679965v-260.989837c0-32.38398 28.799982-39.423975 28.799982-39.423976l94.078941-27.774982v-100.479937c0-27.390983-23.551985-49.790969-52.287967-49.790969H406.913066c-28.735982 0-52.223967 22.399986-52.223968 49.790969v100.863937l94.079942 27.839982s28.734982 7.422995 28.734982 39.422976v260.989836s-2.623998 46.911971-37.054977 55.615966c-34.367979 8.703995-198.142876 41.470974-198.142876 41.470974s-20.863987 5.439997-20.863987 14.527991v43.583972h579.579637v-43.519972c0-9.151994-20.479987-14.975991-20.479987-14.975991z" fill="#d81e06" p-id="16444"></path></svg>